{
	"asset":{
		"generator":"Khronos glTF Blender I/O v4.4.55",
		"version":"2.0"
	},
	"extensionsUsed":[
		"KHR_materials_unlit"
	],
	"scene":0,
	"scenes":[
		{
			"name":"Scene",
			"nodes":[
				5
			]
		}
	],
	"nodes":[
		{
			"mesh":0,
			"name":"frog_frog_mat_0"
		},
		{
			"children":[
				0
			],
			"name":"frog.001",
			"rotation":[
				-0.70710688829422,
				0,
				0,
				0.7071066498756409
			],
			"scale":[
				100,
				99.99999237060547,
				99.99999237060547
			],
			"translation":[
				-0.02236774191260338,
				5.202536582946777,
				-0.7244810461997986
			]
		},
		{
			"name":"Plane.001",
			"rotation":[
				-0.70710688829422,
				0,
				0,
				0.7071066498756409
			],
			"scale":[
				100,
				99.99999237060547,
				99.99999237060547
			],
			"translation":[
				-0.014193747192621231,
				0.0016443429049104452,
				-0.45972901582717896
			]
		},
		{
			"children":[
				1,
				2
			],
			"name":"RootNode.001"
		},
		{
			"children":[
				3
			],
			"name":"little_frog.fbx.001",
			"rotation":[
				0.70710688829422,
				0,
				0,
				0.7071066498756409
			],
			"scale":[
				0.009999999776482582,
				0.010000000707805157,
				0.010000000707805157
			]
		},
		{
			"children":[
				4
			],
			"name":"Sketchfab_model.001",
			"rotation":[
				-0.70710688829422,
				0,
				0,
				0.7071066498756409
			]
		}
	],
	"materials":[
		{
			"doubleSided":true,
			"extensions":{
				"KHR_materials_unlit":{}
			},
			"name":"frog_mat.001",
			"pbrMetallicRoughness":{
				"baseColorTexture":{
					"index":0
				},
				"metallicFactor":0,
				"roughnessFactor":0.9
			}
		}
	],
	"meshes":[
		{
			"name":"frog_frog_mat_0.001",
			"primitives":[
				{
					"attributes":{
						"POSITION":0,
						"NORMAL":1,
						"TEXCOORD_0":2,
						"TEXCOORD_1":3,
						"TEXCOORD_2":4
					},
					"indices":5,
					"material":0
				}
			]
		}
	],
	"textures":[
		{
			"sampler":0,
			"source":0
		}
	],
	"images":[
		{
			"mimeType":"image/png",
			"name":"frog_mat_baseColor",
			"uri":"frog_mat_baseColor.png"
		}
	],
	"accessors":[
		{
			"bufferView":0,
			"componentType":5126,
			"count":18224,
			"max":[
				0.07768736034631729,
				0.10668105632066727,
				0.07495253533124924
			],
			"min":[
				-0.07768736034631729,
				-0.10423149913549423,
				-0.05271458625793457
			],
			"type":"VEC3"
		},
		{
			"bufferView":1,
			"componentType":5126,
			"count":18224,
			"type":"VEC3"
		},
		{
			"bufferView":2,
			"componentType":5126,
			"count":18224,
			"type":"VEC2"
		},
		{
			"bufferView":3,
			"componentType":5126,
			"count":18224,
			"type":"VEC2"
		},
		{
			"bufferView":4,
			"componentType":5126,
			"count":18224,
			"type":"VEC2"
		},
		{
			"bufferView":5,
			"componentType":5123,
			"count":103608,
			"type":"SCALAR"
		}
	],
	"bufferViews":[
		{
			"buffer":0,
			"byteLength":218688,
			"byteOffset":0,
			"target":34962
		},
		{
			"buffer":0,
			"byteLength":218688,
			"byteOffset":218688,
			"target":34962
		},
		{
			"buffer":0,
			"byteLength":145792,
			"byteOffset":437376,
			"target":34962
		},
		{
			"buffer":0,
			"byteLength":145792,
			"byteOffset":583168,
			"target":34962
		},
		{
			"buffer":0,
			"byteLength":145792,
			"byteOffset":728960,
			"target":34962
		},
		{
			"buffer":0,
			"byteLength":207216,
			"byteOffset":874752,
			"target":34963
		}
	],
	"samplers":[
		{
			"magFilter":9729,
			"minFilter":9987
		}
	],
	"buffers":[
		{
			"byteLength":1081968,
			"uri":"scene.bin"
		}
	]
}
